<svg xmlns="http://www.w3.org/2000/svg" viewBox="0 0 800 800"><g transform="translate(0 -252.4)"><circle cx="398" cy="656.4" r="378.7" fill="#fff"/><path fill="#677982" fill-rule="evenodd" d="M354.6 278.6s121.2-12 217 37.4c96 49.5 127.4 99 153.7 148.5 26.2 49.5 28.3 57.5 28.3 57.5s4 147.5-46.5 215.2-104 76.8-141 93c-37 16-138 22.2-138 22.2l166-156.6S632.5 631 621.3 527s-93-171.6-93-171.6-16-19.2-82.7-49.5c-66.7-31-91-28-91-28z"/><path fill="#677982" fill-rule="evenodd" d="M776.8 635.2s4 112-33.3 181.8C706 886.7 642.5 958.4 590 984.7l-54.6 27.3s-134.4-5-194-36.4c-59.6-31.3-107-105-107-105S205 773.6 206 716s16.2-101 16.2-101l84 204s14 32.3 122 63.7 207.2-35.4 207.2-35.4 60-42.6 93-97c34.3-56.8 48.4-115 48.4-115z"/><circle cx="408" cy="660.4" r="192.8" fill="#fff"/><circle cx="408" cy="666.4" r="110" fill="#3e3e3e"/><path fill="#677982" fill-rule="evenodd" d="M441.4 1034.2s-124.2 11-218-37.4c-94-48.5-166-166.8-166-166.8l-15-32s-6-113 42.5-209c48-96 159-120.8 186-124.3 61.6-8 147.4 2 147.4 2s-116 3-173.7 72.7c-57.5 69.7-87 132.3-81 229.3 6.3 97 85 169.7 85 169.7s38.5 40.4 86 58.6 106 37.4 106 37.4z"/><path fill="#677a82" fill-rule="evenodd" d="M22.6 709S-2.7 571.6 76 450.4 263 302 263 302s164.6-18.3 259.6 81.7c72.8 76.6 66.7 143.4 66.7 143.4l4 82S565 492 414.5 437c-150.5-54.5-267.7 44.5-267.7 44.5S74 555.5 41.8 646c-22.4 63-19.3 63-19.3 63z"/></g></svg>