<svg version="1" xmlns="http://www.w3.org/2000/svg" width="1173.333" height="1173.333" viewBox="0 0 880.000000 880.000000"><path d="M120 79.9v80l4.3.3c2.3.2 6.6.1 9.5-.3 2.8-.3 5.2-.3 5.2 0 0 .4 2.7.6 6 .6s6-.2 6-.5 4.7-.5 10.5-.5 10.5.2 10.5.6c0 .3 2.5.2 5.5-.1 3-.3 5.5-.3 5.5 0s2.9.3 6.4 0c3.5-.3 7.7-.3 9.2 0 1.6.4 4 .3 5.4 0 1.4-.4 3.6-.4 5 0s3.6.4 5 0c1.4-.3 4.1-.3 6 0 2 .4 6.1.4 9.3 0 3.1-.3 5.7-.4 5.7-.1 0 .4 2.7.6 6 .6s6-.2 6-.5 3.7-.4 8.2-.3c13.2.3 14.1.3 18.6.3 2.4 0 4.8.3 5.4.6 1.3.9.2-18-1.7-28.1-3.5-18.4-10.6-37.9-18.7-51.4-2.1-3.4-3.8-6.5-3.8-6.8 0-.5-5.8-9-7.5-10.9-.5-.6-2.6-3.1-4.5-5.5-9.5-11.9-29.6-29-41.6-35.5-1.1-.6-5.1-2.8-8.7-4.8-3.7-2-6.7-3.3-6.7-3 0 .4-.6.2-1.2-.3-1.2-.9-13.2-5.7-17.3-6.9-13.3-4-26.6-6.4-38.7-7.1L120-.2v80.1zM127.2 239.8l-7.3.3.4 170.2c.3 169 .3 170.3 2.4 179.4 1.7 7.5 3.5 14.1 5.8 21.3 1.5 4.6 7 17.7 9.1 21.5 7.7 14.1 9.7 17.5 10.7 17.5.4 0 .7.6.7 1.3 0 .7 1 2.3 2.3 3.7 1.2 1.4 3.5 4.2 5 6.2 3.8 5.1 16.1 17.5 22.2 22.3 2.8 2.2 5.2 4.2 5.5 4.5 3 3.3 26.2 16.3 35 19.8 5.5 2.1 20.7 7.1 23.2 7.6 18.1 3.6 18.1 3.6 28.5 4.1l9.4.4-.1-3.7v-5.7c.1-2.5.1-19.5.1-21.5-.1-2.4 0-11 .2-17.3.1-3.1-.2-5.7-.7-5.7-.5 0-.3-.6.3-1.3.6-.8.8-1.6.5-1.9-.2-.3-.4-4.1-.4-8.4.1-4.4.1-8.8.1-9.9v-10-9.5c-.1-2.3 0-10.8.2-17.3.1-3.1-.2-5.7-.7-5.7-.5 0-.3-.6.3-1.3.6-.8.8-1.6.5-1.9-.2-.3-.4-4.1-.4-8.4.1-4.4.1-8.8.1-9.9v-10-9.5c-.1-2.3 0-10.8.2-17.3.1-3.1-.2-5.7-.7-5.7-.5 0-.3-.6.3-1.3.6-.8.8-1.6.5-1.9-.4-.5-.5-6.8-.3-17.8.1-.8 0-6.2 0-12v-28.5-12-13-9.5-14.5c.1-.6.1-7.3 0-15v-32-12-13-9.5-14.5c.1-.6.1-7.3 0-15v-32c0-38.7-.2-44.2-1.7-44.3-2.5-.3-3.8-.4-7.9-.3-2.2.1-4.7.1-5.5 0H159c-8.2 0-8.8 0-17.3.1-3.2 0-6.1-.1-6.5-.2-.4-.2-4-.2-8 0zM360 256.7c0 9.5-.1 19.7-.1 22.5v61.3c-.1.5-.1 7.3 0 15v81c-.1.5-.1 7.3 0 15v81c-.1 2 0 30.2.1 37.5.1 4.1.1 8.1.1 8.7v89.8c.1 7.7.1 14.4.1 15-.3 15.7-.3 17.2-.3 36v37c-.1 2.1 0 24.1 0 26 .1 3.2 0 11.5-.2 17.8-.1 3.1.2 5.7.7 5.7.6 0 .6.4 0 1s-.8 3.3-.4 6.3c.3 2.8.3 7.2 0 9.7-.3 2.5-.3 6.3 0 8.5s.3 6.6 0 9.7c-.3 3.1-.3 6.4 0 7.4.3.9.4 3.7 0 6.3-.3 2.5-.3 6.7 0 9.3.3 2.7.3 4.8-.1 4.8-.6 0-.2 7.5.6 9.8.4 1 2.4 1.2 8 1 4.1-.2 7.7-.7 8.1-1 .3-.4 1.1-.5 1.8-.2 2.2.8 25.9-4.7 35.6-8.3 9.8-3.7 20.2-8.5 26.8-12.4 7.9-4.7 17.2-11.2 17.2-12 0-.5.5-.9 1.1-.9 1.9 0 17.4-14.9 24.5-23.5 9.6-11.6 20.4-30.2 25.8-44.7 3-7.9 7.3-23.8 8.1-29.8.3-2.5.8-5.3 1.1-6.2.7-2.5 1.4-18.7 1.3-29.8 0-5.2-.1-10.2 0-11v-24-24-24-24-47.5c0-.6 0-8.4.1-17.5s.1-23 .1-31v-33-16-16-16-16-16-16-16-16-16-16-16-16c0-17.2 0-13.6-.1-29.7-.1-7.3-.4-13.2-.8-13.2-.4.1-.9.1-1.2 0-1.5-.6-12-.5-12 .1 0 .3-.8.4-1.7.2-2.7-.7-15.3-1-15.3-.4 0 .4-19.6.4-21-.1-.3-.1-.8-.1-1.1-.1-1.7.2-8.3.3-17.4.2h-11c-1.5.2-14.2 0-21.8-.3-3.7-.1-6.7.1-6.7.5 0 .3-.8.4-1.7.2-2.7-.7-15.3-1-15.3-.4 0 .3-4.6.4-10.2.3-5.7-.1-10.3-.3-10.3-.3 0-.1-2.8-.2-6.2-.3l-6.2-.2-.1 17.2zM606.6 239.8l-6.8.3.4 2.9c.3 1.7.1 3-.4 3s-.7.4-.4.9c.3.5.6 6.9.5 14.2V305c0 6.3.1 17.1 0 24v104c0 6.3.1 17.1 0 24v43c0 .8 0 4.9.1 9 .1 7.8.2 24.2.1 27.2-.2 3.9-.2 5.6-.2 13.3-.1 4.4 0 8.9.1 10 .1 1.1.1 2.7.1 3.5v12.5c0 6 .1 11.4 0 12v16c0 10.4.1 23.2.1 24-.1.5-.1 8.4-.2 17.5-.1 13.3-.1 33.8-.1 47.5.1 16.5 0 24.8-.2 25.8-.2 1.3 11 1.6 20 .4 10.6-1.4 30.2-6.3 36.8-9.1 16.7-7.3 32.6-15.7 33.3-17.7.2-.5.8-.9 1.3-.9 1.7 0 15.1-11.1 22.9-19 24.3-24.6 39.4-56 45.1-94 .1-.8.4-77.2.6-169.8L760 240l-4.7-.1c-2.7-.1-5.2 0-5.8.1-.5.1-1.4.2-2 .2-2.7-.1-20.1-.3-21-.2-1.4.2-13.8 0-21.8-.3-3.7-.1-6.7.1-6.7.5 0 .3-.8.4-1.7.2-2.7-.7-15.3-1-15.3-.4 0 .4-19.6.4-21-.1-.3-.1-.8-.1-1.1-.1-1.7.2-8.3.3-17.4.2h-11c-2.4.3-15.5.1-16.2-.2-.5-.2-3.9-.2-7.7 0z"/></svg>